<?xml version="1.0" encoding="utf-8"?>
<!-- Generator: Adobe Illustrator 16.0.0, SVG Export Plug-In . SVG Version: 6.00 Build 0)  -->
<!DOCTYPE svg PUBLIC "-//W3C//DTD SVG 1.1//EN" "http://www.w3.org/Graphics/SVG/1.1/DTD/svg11.dtd">
<svg version="1.1" id="Layer_1" xmlns="http://www.w3.org/2000/svg" xmlns:xlink="http://www.w3.org/1999/xlink" x="0px" y="0px"
	 width="1280px" height="1280px" viewBox="0 0 1280 1280" enable-background="new 0 0 1280 1280" xml:space="preserve">
<g>
	<path fill="#E62333" d="M882.895,831.043c-0.913-0.738-3.648-2.83-5.235-4.049c-1.778-1.311-3.536-2.65-5.35-3.94
		c-5.165-3.675-10.367-7.307-15.682-10.759c-12.632-8.184-25.593-15.896-39-22.783c-6.631-3.397-13.322-6.719-20.121-9.781
		c-1.644-0.744-7.193-3.09-7.238-3.14c-0.191-0.082-0.374-0.16-0.565-0.227c-26.265-10.286-53.423-18.403-81.176-23.543
		c-5.293-0.967-10.604-1.87-15.909-2.692c-2.421-0.242-11.203-1.276-13.42-1.463c-13.342-1.149-26.729-1.84-40.116-1.794
		c-14.604,0.055-29.206,0.645-43.741,2.144c-3.028,0.299-6.012,0.629-9.041,0.99c-0.889,0.111-1.7,0.242-2.218,0.321
		c-6.023,0.969-12.047,1.972-18.026,3.181c-27.527,5.573-54.628,13.422-80.636,24.077c-0.394,0.187-0.821,0.365-1.35,0.607
		c-3.39,1.528-6.79,3.056-10.145,4.675c-6.733,3.234-13.432,6.567-19.984,10.142c-12.138,6.617-24.072,13.663-35.533,21.364
		c-6.339,4.269-12.599,8.604-18.701,13.178c-0.496,0.368-0.9,0.684-1.25,0.957c-0.068,0.046-0.112,0.069-0.169,0.115
		c-2.004,1.613-3.997,3.23-5.99,4.863c-0.405,0.337-0.798,0.691-1.216,1.042c17.778,30.206,36.175,59.177,54.156,86.14
		c55.371-42.08,123.825-66.483,193.867-66.01c72.97,0.493,143.101,25.558,199.676,70.555c18.051-26.702,36.447-55.489,54.157-85.766
		C889.641,836.587,886.296,833.79,882.895,831.043z"/>
	<path fill="#0076B6" d="M769.505,1005.101c-1.518-1.12-3.062-2.233-4.604-3.333c-3.12-2.167-6.238-4.323-9.424-6.338
		c-7.431-4.686-14.997-9.143-22.822-13.056c-3.333-1.673-6.664-3.333-10.066-4.841c-0.235-0.113-0.449-0.209-0.661-0.3
		c-0.104-0.033-0.205-0.067-0.307-0.117c-14.883-5.669-30.196-10.33-45.846-13.246c-2.397-0.452-11.946-1.752-10.775-1.706
		c-1.351-0.136-2.692-0.264-4.052-0.365c-7.275-0.559-14.57-0.959-21.866-0.901c-8.512,0.056-17.023,0.343-25.501,1.211
		c-1.127,0.101-2.241,0.242-3.39,0.365c-0.191,0.039-0.36,0.062-0.585,0.098c-3.603,0.604-7.217,1.242-10.809,2.015
		c-13.622,2.943-27.111,6.709-40.138,11.703c-1.475,0.702-8.118,3.597-9.806,4.424c-3.344,1.671-6.688,3.345-9.954,5.157
		c-6.586,3.643-13.105,7.436-19.365,11.629c-3.243,2.18-6.474,4.409-9.615,6.699c-1.318,1.026-2.883,2.253-3.75,2.962
		c41.873,56.441,72.407,92.01,72.407,92.01c33.776,39.315,89.901,40.08,124.727,1.709c0,0,31.095-34.238,73.451-89.622
		C774.392,1009.165,771.983,1007.093,769.505,1005.101z"/>
	<g>
		<path fill="#0076B6" d="M639.983,122.254c-204.428,0-370.138,165.731-370.138,370.171c0,76.504,29.555,163.767,70.391,247.791
			c85.872-63.698,191.177-99.989,298.857-99.567c110.361,0.462,217.273,37.367,304.238,103.648
			c38.945-82.684,66.823-170.329,66.823-251.888C1010.143,287.985,844.434,122.254,639.983,122.254z M639.836,550.657
			c-74.624,0-135.095-60.484-135.095-135.097c0-74.607,60.472-135.101,135.095-135.101c74.603,0,135.098,60.494,135.098,135.101
			C774.934,490.162,714.438,550.657,639.836,550.657z"/>
	</g>
	<path fill="#E82833" d="M639.983,6.332c-261.883,0-474.936,213.059-474.936,474.94c0,128.987,63.939,294.456,190.051,491.772
		c93.437,146.209,186.875,255.128,187.798,256.21c25.523,29.7,61.631,46.745,99.08,46.745c36.692,0,71.078-15.628,96.883-44.055
		c0.946-1.037,95.203-105.53,187.078-247.195c125.425-193.414,189.016-362.797,189.016-503.478
		C1114.94,219.391,901.878,6.332,639.983,6.332z M693.093,1190.412c-13.939,15.333-32.091,23.789-51.129,23.789
		c-19.69,0-38.212-8.952-52.173-25.219c-3.625-4.234-362.943-426.261-362.943-707.71c0-227.802,185.333-413.134,413.135-413.134
		c227.814,0,413.158,185.342,413.158,413.134c0,126.579-61.789,288.877-178.713,469.308
		C784.706,1089.035,693.993,1189.397,693.093,1190.412z"/>
</g>
</svg>
