<?xml version="1.0" encoding="utf-8"?>
<!-- Generator: Adobe Illustrator 16.0.0, SVG Export Plug-In . SVG Version: 6.00 Build 0)  -->
<!DOCTYPE svg PUBLIC "-//W3C//DTD SVG 1.1//EN" "http://www.w3.org/Graphics/SVG/1.1/DTD/svg11.dtd">
<svg version="1.1" id="Layer_1" xmlns="http://www.w3.org/2000/svg" xmlns:xlink="http://www.w3.org/1999/xlink" x="0px" y="0px"
	 width="1280px" height="1280px" viewBox="0 0 1280 1280" enable-background="new 0 0 1280 1280" xml:space="preserve">
<g>
	<path fill="#E62333" d="M790.672,528.378c-0.57-0.462-2.281-1.771-3.273-2.532c-1.113-0.82-2.212-1.658-3.346-2.465
		c-3.232-2.299-6.486-4.57-9.811-6.729c-7.901-5.12-16.008-9.944-24.395-14.251c-4.148-2.126-8.331-4.204-12.585-6.119
		c-1.028-0.465-4.5-1.934-4.528-1.965c-0.119-0.05-0.232-0.099-0.352-0.142c-16.43-6.433-33.416-11.511-50.776-14.726
		c-3.31-0.605-6.634-1.169-9.95-1.683c-1.515-0.151-7.008-0.8-8.395-0.916c-8.346-0.718-16.719-1.151-25.093-1.123
		c-9.134,0.035-18.269,0.405-27.36,1.342c-1.894,0.187-3.76,0.395-5.655,0.62c-0.557,0.07-1.063,0.151-1.387,0.2
		c-3.768,0.605-7.536,1.232-11.275,1.989c-17.219,3.486-34.17,8.395-50.438,15.061c-0.247,0.116-0.514,0.229-0.845,0.38
		c-2.12,0.954-4.247,1.912-6.345,2.923c-4.211,2.024-8.401,4.109-12.5,6.346c-7.592,4.137-15.057,8.546-22.226,13.362
		c-3.965,2.669-7.88,5.381-11.697,8.243c-0.31,0.229-0.563,0.427-0.782,0.599c-0.042,0.028-0.07,0.042-0.105,0.07
		c-1.254,1.011-2.5,2.021-3.747,3.043c-0.254,0.211-0.5,0.433-0.761,0.651c11.12,18.895,22.627,37.015,33.874,53.881
		c34.634-26.32,77.452-41.585,121.264-41.289c45.642,0.31,89.509,15.986,124.896,44.131c11.289-16.701,22.797-34.708,33.874-53.646
		C794.891,531.846,792.799,530.096,790.672,528.378z"/>
	<path fill="#0076B6" d="M719.748,637.25c-0.951-0.701-1.915-1.398-2.88-2.085c-1.951-1.355-3.901-2.704-5.895-3.965
		c-4.647-2.93-9.381-5.718-14.274-8.165c-2.086-1.046-4.17-2.085-6.297-3.028c-0.147-0.07-0.281-0.131-0.415-0.187
		c-0.063-0.021-0.127-0.043-0.19-0.074c-9.311-3.546-18.888-6.462-28.677-8.285c-1.5-0.282-7.472-1.096-6.739-1.067
		c-0.846-0.084-1.684-0.165-2.535-0.229c-4.55-0.349-9.113-0.599-13.677-0.563c-5.323,0.035-10.647,0.215-15.951,0.757
		c-0.704,0.063-1.401,0.151-2.12,0.229c-0.119,0.025-0.225,0.039-0.365,0.061c-2.254,0.38-4.515,0.778-6.761,1.261
		c-8.521,1.841-16.958,4.197-25.106,7.32c-0.923,0.44-5.078,2.25-6.134,2.768c-2.091,1.046-4.183,2.092-6.225,3.226
		c-4.12,2.278-8.198,4.651-12.113,7.274c-2.028,1.363-4.049,2.757-6.014,4.19c-0.824,0.641-1.803,1.408-2.345,1.853
		c26.191,35.303,45.29,57.551,45.29,57.551c21.127,24.584,56.233,25.07,78.016,1.078c0,0,19.451-21.424,45.944-56.064
		C722.805,639.789,721.298,638.496,719.748,637.25z"/>
	<g>
		<path fill="#0076B6" d="M638.732,85.033c-127.869,0-231.519,103.664-231.519,231.54c0,47.854,18.486,102.436,44.029,154.993
			c53.712-39.842,119.58-62.544,186.934-62.279c69.029,0.289,135.904,23.374,190.301,64.832
			c24.359-51.719,41.797-106.541,41.797-157.556C870.266,188.697,766.615,85.033,638.732,85.033z M638.641,352.997
			c-46.677,0-84.501-37.832-84.501-84.502c0-46.666,37.825-84.505,84.501-84.505c46.663,0,84.502,37.839,84.502,84.505
			C723.143,315.158,685.304,352.997,638.641,352.997z"/>
	</g>
	<path fill="#E82833" d="M638.732,12.524c-163.807,0-297.07,133.268-297.07,297.074c0,80.681,39.994,184.18,118.875,307.602
		c58.445,91.446,116.89,159.589,117.468,160.251c15.965,18.592,38.55,29.246,61.973,29.246c22.951,0,44.459-9.781,60.601-27.557
		c0.591-0.648,59.55-66.002,117.017-154.62c78.452-120.978,118.229-226.928,118.229-314.922
		C935.816,145.792,802.546,12.524,638.732,12.524z M671.951,753.162c-8.719,9.598-20.07,14.879-31.979,14.879
		c-12.317,0-23.902-5.605-32.634-15.773c-2.268-2.648-227.019-266.623-227.019-442.669c0-142.489,115.925-258.415,258.414-258.415
		c142.496,0,258.428,115.932,258.428,258.415c0,79.174-38.648,180.69-111.783,293.549
		C729.256,689.744,672.515,752.535,671.951,753.162z"/>
</g>
<g>
	<path fill="#0076B6" d="M45.571,976.596c0-5.26,3.557-9.965,10.676-14.127c7.099-4.154,14.599-6.24,22.479-6.24
		c9.19,0,14.663,3.178,16.416,9.521l49.91,168.434l25.938-110.98c0.866-4.156,3.718-7.438,8.535-9.846s10.184-3.619,16.085-3.619
		c5.909,0,11.275,1.211,16.092,3.619c4.81,2.408,7.655,5.689,8.528,9.846l25.952,110.98l49.902-168.434
		c1.747-6.344,7.226-9.521,16.409-9.521c7.888,0,15.381,2.086,22.494,6.24c7.105,4.162,10.669,8.867,10.669,14.127
		c0,1.535-0.218,2.951-0.655,4.268l-65.347,200.271c-1.965,5.473-6.07,9.684-12.31,12.643c-6.239,2.957-13.401,4.436-21.493,4.436
		c-8.106,0-15.332-1.479-21.677-4.436c-6.359-2.959-10.176-7.17-11.5-12.643l-17.064-77.811l-17.071,77.811
		c-1.324,5.473-5.148,9.684-11.5,12.643c-6.353,2.957-13.578,4.436-21.67,4.436c-8.099,0-15.324-1.479-21.669-4.436
		c-6.352-2.959-10.387-7.17-12.148-12.643L46.205,980.863C45.79,979.547,45.571,978.131,45.571,976.596z"/>
	<path fill="#0076B6" d="M367.656,1003.047c-5.253-4.479-7.88-9.74-7.88-15.775s2.627-11.254,7.88-15.619
		c5.261-4.367,11.606-6.557,19.043-6.557c7.226,0,13.465,2.189,18.726,6.557c5.254,4.365,7.88,9.584,7.88,15.619
		s-2.626,11.297-7.88,15.775c-5.261,4.465-11.5,6.705-18.726,6.705C379.262,1009.752,372.917,1007.512,367.656,1003.047z
		 M361.423,1180.488v-125.102c0-4.592,2.345-8.311,7.063-11.156c4.697-2.844,10.782-4.273,18.212-4.273
		c7.226,0,13.303,1.43,18.226,4.273c4.923,2.846,7.388,6.564,7.388,11.156v125.102c0,3.936-2.521,7.549-7.557,10.83
		c-5.035,3.283-11.049,4.93-18.064,4.93c-7.218,0-13.24-1.592-18.049-4.76C363.832,1188.313,361.423,1184.643,361.423,1180.488z"/>
	<path fill="#0076B6" d="M444.489,1180.488v-208.49c0-5.037,2.176-8.924,6.563-11.656c4.366-2.732,9.627-4.098,15.761-4.098h113.925
		c5.035,0,8.866,2.189,11.493,6.563c2.627,4.381,3.937,9.521,3.937,15.438c0,6.352-1.359,11.711-4.099,16.084
		c-2.732,4.381-6.507,6.57-11.324,6.57h-85.03v55.488h49.571c4.817,0,8.592,1.971,11.332,5.9c2.732,3.945,4.099,8.648,4.099,14.129
		c0,5.035-1.324,9.514-3.944,13.465c-2.62,3.93-6.458,5.9-11.493,5.9h-49.572v84.713c0,5.035-2.521,8.924-7.557,11.656
		c-5.042,2.738-11.056,4.098-18.057,4.098c-7.007,0-13.028-1.359-18.057-4.098C446.996,1189.404,444.489,1185.516,444.489,1180.488z
		"/>
	<path fill="#0076B6" d="M616.852,1003.047c-5.253-4.479-7.88-9.74-7.88-15.775s2.627-11.254,7.88-15.619
		c5.261-4.367,11.605-6.557,19.057-6.557c7.219,0,13.459,2.189,18.712,6.557c5.261,4.365,7.88,9.584,7.88,15.619
		s-2.619,11.297-7.88,15.775c-5.253,4.465-11.493,6.705-18.712,6.705C628.457,1009.752,622.105,1007.512,616.852,1003.047z
		 M610.619,1180.488v-125.102c0-4.592,2.345-8.311,7.057-11.156c4.704-2.844,10.781-4.273,18.226-4.273
		c7.218,0,13.296,1.43,18.204,4.273c4.938,2.846,7.395,6.564,7.395,11.156v125.102c0,3.936-2.521,7.549-7.549,10.83
		c-5.043,3.283-11.057,4.93-18.057,4.93c-7.226,0-13.254-1.592-18.064-4.76C613.021,1188.313,610.619,1184.643,610.619,1180.488z"/>
	<path fill="#E82833" d="M693.678,1180.488V981.85c0-8.746,2.465-15.211,7.387-19.381c4.93-4.154,10.994-6.24,18.219-6.24
		c9.853,0,17.346,1.48,22.494,4.43c5.134,2.959,10.881,10.021,17.239,21.184l33.812,59.094l33.816-59.094
		c6.346-11.162,12.092-18.225,17.24-21.184c5.135-2.949,12.641-4.43,22.486-4.43c7.226,0,13.297,2.086,18.212,6.24
		c4.937,4.162,7.395,10.619,7.395,19.381v198.639c0,5.041-2.521,8.916-7.557,11.648c-5.035,2.746-11.05,4.111-18.057,4.111
		c-7.015,0-13.036-1.365-18.057-4.111c-5.036-2.732-7.557-6.607-7.557-11.648v-123.123l-31.515,53.84
		c-3.732,6.352-9.423,9.521-17.078,9.521c-7.437,0-12.796-3.17-16.084-9.521l-31.185-57.129v126.412
		c0,5.041-2.528,8.916-7.557,11.648c-5.028,2.746-11.05,4.111-18.057,4.111s-13.028-1.365-18.057-4.111
		C696.191,1189.404,693.678,1185.516,693.678,1180.488z"/>
	<path fill="#E82833" d="M915.626,1154.037c0-17.494,6.62-29.832,19.859-37.002c13.247-7.168,32.233-10.754,56.959-10.754h11.824
		v-3.443c0-6.873-1.965-12.838-5.901-17.887c-3.943-5.043-10.184-7.564-18.719-7.564c-10.5,0-19.162,2.029-25.938,6.078
		c-6.789,4.049-10.951,6.07-12.479,6.07c-5.254,0-9.416-2.57-12.479-7.711c-3.056-5.141-4.592-11-4.592-17.572
		c0-7.217,6.071-13.4,18.219-18.557c12.148-5.133,24.79-7.717,37.923-7.717c25.17,0,43.938,6.133,56.313,18.395
		c12.365,12.254,18.549,27.578,18.549,45.965v78.143c0,4.373-2.352,8.1-7.057,11.162c-4.704,3.064-10.669,4.592-17.895,4.592
		c-6.352,0-11.711-1.633-16.078-4.908c-4.38-3.275-6.563-7.24-6.563-11.916v-7.711c-15.106,18.549-31.74,27.816-49.91,27.816
		c-12.035,0-22.057-3.873-30.043-11.633C919.619,1180.143,915.626,1168.854,915.626,1154.037z M966.846,1147.346
		c0,8.529,4.268,12.783,12.803,12.783c5.465,0,10.943-2.838,16.402-8.521c5.479-5.691,8.218-12.184,8.218-19.486v-1.211h-1.31
		c-7.226,0-13.19,0.303-17.888,0.908c-4.712,0.611-8.923,2.182-12.648,4.725C968.697,1139.072,966.846,1142.678,966.846,1147.346z"
		/>
	<path fill="#E82833" d="M1083.721,1251.729v-196.342c0-4.592,2.353-8.311,7.064-11.156c4.697-2.844,10.437-4.273,17.232-4.273
		c6.781,0,12.366,1.436,16.746,4.303c4.367,2.873,6.564,6.619,6.564,11.254v7.619c4.148-7.057,10.176-13.008,18.063-17.859
		c7.88-4.852,16.628-7.281,26.261-7.281c16.424,0,30.318,6.732,41.699,20.189c11.38,13.459,17.077,29.713,17.077,48.756v22.986
		c0,18.387-5.753,34.578-17.247,48.592c-11.493,14.008-24.789,21.008-39.888,21.008c-9.19,0-17.79-2.584-25.775-7.768
		c-7.986-5.191-13.62-11.408-16.909-18.697v78.635c0,3.943-2.57,7.557-7.711,10.854c-5.148,3.287-11.219,4.93-18.219,4.93
		c-7.015,0-12.923-1.592-17.732-4.762C1086.13,1259.553,1083.721,1255.885,1083.721,1251.729z M1134.603,1134.051
		c0,3.471,2.472,7.816,7.388,13.014c4.937,5.211,10.676,7.816,17.24,7.816c6.352,0,11.986-2.549,16.916-7.646
		c4.93-5.107,7.38-10.902,7.38-17.416v-22.77c0-6.295-2.458-11.936-7.38-16.922c-4.93-4.979-10.783-7.486-17.571-7.486
		c-6.353,0-11.923,2.225-16.747,6.676c-4.803,4.443-7.226,10.359-7.226,17.732V1134.051L1134.603,1134.051z"/>
</g>
</svg>
