<?xml version="1.0" encoding="utf-8"?>
<!-- Generator: Adobe Illustrator 16.0.0, SVG Export Plug-In . SVG Version: 6.00 Build 0)  -->
<!DOCTYPE svg PUBLIC "-//W3C//DTD SVG 1.1//EN" "http://www.w3.org/Graphics/SVG/1.1/DTD/svg11.dtd">
<svg version="1.1" id="Layer_1" xmlns="http://www.w3.org/2000/svg" xmlns:xlink="http://www.w3.org/1999/xlink" x="0px" y="0px"
	 width="1280px" height="1280px" viewBox="0 0 1280 1280" enable-background="new 0 0 1280 1280" xml:space="preserve">
<g>
	<path fill="#E62333" d="M308.564,720.457c-0.38-0.306-1.521-1.179-2.181-1.689c-0.745-0.55-1.48-1.108-2.235-1.646
		c-2.153-1.533-4.326-3.048-6.543-4.485c-5.268-3.419-10.675-6.636-16.266-9.505c-2.771-1.417-5.56-2.804-8.398-4.081
		c-0.688-0.31-3.004-1.286-3.016-1.308c-0.08-0.029-0.159-0.065-0.238-0.095c-10.958-4.292-22.289-7.675-33.869-9.819
		c-2.208-0.41-4.421-0.784-6.64-1.123c-1.008-0.099-4.665-0.528-5.596-0.612c-5.566-0.475-11.147-0.766-16.731-0.745
		c-6.089,0.023-12.185,0.271-18.25,0.891c-1.259,0.125-2.516,0.265-3.768,0.416c-0.377,0.051-0.716,0.102-0.931,0.131
		c-2.513,0.407-5.021,0.823-7.519,1.328c-11.488,2.328-22.799,5.599-33.649,10.045c-0.164,0.071-0.34,0.154-0.56,0.253
		c-1.417,0.636-2.833,1.274-4.232,1.945c-2.812,1.354-5.606,2.741-8.344,4.229c-5.064,2.763-10.041,5.703-14.825,8.917
		c-2.641,1.776-5.256,3.588-7.798,5.495c-0.204,0.154-0.377,0.279-0.529,0.397c-0.022,0.019-0.04,0.03-0.064,0.051
		c-0.837,0.668-1.671,1.346-2.498,2.029c-0.174,0.139-0.337,0.288-0.508,0.431c7.415,12.603,15.086,24.688,22.594,35.94
		c23.1-17.558,51.654-27.74,80.877-27.544c30.453,0.208,59.709,10.663,83.312,29.436c7.534-11.139,15.208-23.153,22.595-35.78
		C311.378,722.771,309.985,721.601,308.564,720.457z"/>
	<path fill="#0076B6" d="M261.262,793.072c-0.639-0.47-1.274-0.933-1.92-1.388c-1.301-0.902-2.604-1.803-3.942-2.646
		c-3.092-1.948-6.246-3.813-9.52-5.447c-1.39-0.695-2.78-1.391-4.197-2.022c-0.101-0.045-0.186-0.087-0.273-0.128
		c-0.046-0.015-0.083-0.03-0.132-0.048c-6.206-2.367-12.594-4.313-19.124-5.527c-1.004-0.188-4.986-0.733-4.493-0.71
		c-0.563-0.06-1.128-0.113-1.691-0.157c-3.036-0.229-6.078-0.396-9.122-0.375c-3.549,0.027-7.099,0.146-10.636,0.509
		c-0.471,0.047-0.943,0.104-1.414,0.154c-0.079,0.012-0.159,0.023-0.247,0.038c-1.506,0.256-3.007,0.52-4.499,0.841
		c-5.688,1.224-11.311,2.798-16.752,4.877c-0.618,0.291-3.389,1.5-4.091,1.848c-1.393,0.698-2.789,1.396-4.151,2.15
		c-2.75,1.521-5.47,3.104-8.079,4.856c-1.353,0.909-2.694,1.836-4.014,2.795c-0.545,0.428-1.196,0.936-1.561,1.236
		c17.468,23.548,30.212,38.388,30.212,38.388c14.085,16.401,37.506,16.723,52.035,0.716c0,0,12.973-14.284,30.647-37.39
		C263.296,794.765,262.29,793.903,261.262,793.072z"/>
	<g>
		<path fill="#0076B6" d="M207.222,424.749c-85.292,0-154.433,69.141-154.433,154.433c0,31.922,12.343,68.322,29.377,103.384
			c35.822-26.578,79.76-41.721,124.681-41.54c46.044,0.193,90.652,15.589,126.928,43.242
			c16.249-34.497,27.882-71.066,27.882-105.086C361.655,493.89,292.514,424.749,207.222,424.749z M207.158,603.476
			c-31.13,0-56.363-25.234-56.363-56.364c0-31.127,25.233-56.364,56.363-56.364c31.124,0,56.36,25.237,56.36,56.364
			C263.518,578.241,238.286,603.476,207.158,603.476z"/>
	</g>
	<path fill="#E82833" d="M207.222,376.382C97.96,376.382,9.07,465.271,9.07,574.532c0,53.811,26.678,122.843,79.296,205.174
		c38.982,60.991,77.965,106.437,78.352,106.886c10.646,12.395,25.717,19.506,41.337,19.506c15.3,0,29.652-6.529,40.42-18.381
		c0.389-0.434,39.72-44.022,78.047-103.131c52.326-80.694,78.855-151.364,78.855-210.054
		C405.375,465.268,316.484,376.382,207.222,376.382z M229.377,870.386c-5.816,6.4-13.387,9.927-21.325,9.927
		c-8.216,0-15.947-3.74-21.773-10.521c-1.515-1.764-151.425-177.834-151.425-295.256c0-95.041,77.322-172.366,172.366-172.366
		c95.043,0,172.369,77.325,172.369,172.366c0,52.81-25.784,120.518-74.557,195.796C267.606,828.092,229.754,869.967,229.377,870.386
		z"/>
</g>
<g>
	<path fill="#0076B6" d="M478.579,551.015c0-3.505,2.373-6.644,7.118-9.417c4.742-2.771,9.744-4.162,15-4.162
		c6.132,0,9.78,2.118,10.95,6.352l33.288,112.342l17.3-74.02c0.581-2.774,2.479-4.96,5.693-6.569
		c3.212-1.607,6.79-2.409,10.731-2.409c3.942,0,7.518,0.802,10.73,2.409c3.209,1.608,5.11,3.799,5.694,6.569l17.3,74.02
		l33.288-112.342c1.168-4.234,4.818-6.352,10.949-6.352c5.256,0,10.256,1.39,15,4.162c4.742,2.777,7.119,5.912,7.119,9.417
		c0,1.021-0.148,1.971-0.439,2.845l-43.579,133.588c-1.314,3.647-4.052,6.458-8.213,8.43c-4.162,1.973-8.945,2.956-14.344,2.956
		c-5.403,0-10.224-0.983-14.455-2.956c-4.235-1.972-6.788-4.782-7.663-8.43l-11.388-51.902l-11.388,51.902
		c-0.876,3.647-3.431,6.458-7.665,8.43c-4.237,1.973-9.055,2.956-14.454,2.956c-5.401,0-10.219-0.983-14.453-2.956
		c-4.237-1.972-6.934-4.782-8.103-8.43l-43.58-133.588C478.723,552.985,478.579,552.036,478.579,551.015z"/>
	<path fill="#0076B6" d="M693.41,568.655c-3.502-2.983-5.254-6.49-5.254-10.518s1.752-7.5,5.254-10.417
		c3.506-2.917,7.738-4.374,12.703-4.374c4.818,0,8.977,1.457,12.482,4.374c3.504,2.914,5.254,6.389,5.254,10.417
		s-1.75,7.534-5.254,10.518c-3.506,2.984-7.664,4.478-12.482,4.478C701.148,573.133,696.916,571.639,693.41,568.655z
		 M689.252,687.009v-83.437c0-3.065,1.564-5.544,4.707-7.445c3.141-1.898,7.189-2.847,12.154-2.847
		c4.818,0,8.871,0.952,12.152,2.847c3.285,1.901,4.928,4.38,4.928,7.445v83.437c0,2.626-1.678,5.038-5.035,7.227
		c-3.361,2.189-7.375,3.285-12.045,3.285c-4.816,0-8.836-1.061-12.043-3.175C690.854,692.228,689.252,689.783,689.252,687.009z"/>
	<path fill="#0076B6" d="M744.654,687.009V547.947c0-3.357,1.455-5.949,4.377-7.774c2.918-1.824,6.422-2.737,10.512-2.737h75.992
		c3.357,0,5.914,1.46,7.664,4.38c1.752,2.92,2.629,6.352,2.629,10.293c0,4.237-0.912,7.811-2.738,10.73
		c-1.828,2.92-4.346,4.38-7.555,4.38h-56.721v37.011h33.068c3.209,0,5.727,1.313,7.557,3.942c1.824,2.627,2.736,5.767,2.736,9.416
		c0,3.358-0.877,6.351-2.627,8.979c-1.752,2.627-4.309,3.942-7.666,3.942h-33.068v56.5c0,3.362-1.682,5.952-5.035,7.773
		c-3.359,1.827-7.375,2.738-12.047,2.738s-8.686-0.911-12.045-2.738C746.332,692.958,744.654,690.371,744.654,687.009z"/>
	<path fill="#0076B6" d="M859.625,568.655c-3.506-2.983-5.258-6.49-5.258-10.518s1.752-7.5,5.258-10.417
		c3.502-2.917,7.736-4.374,12.701-4.374c4.816,0,8.979,1.457,12.482,4.374c3.502,2.914,5.256,6.389,5.256,10.417
		s-1.754,7.534-5.256,10.518c-3.504,2.984-7.666,4.478-12.482,4.478C867.361,573.133,863.127,571.639,859.625,568.655z
		 M855.463,687.009v-83.437c0-3.065,1.566-5.544,4.709-7.445c3.139-1.898,7.189-2.847,12.154-2.847
		c4.816,0,8.869,0.952,12.154,2.847c3.285,1.901,4.928,4.38,4.928,7.445v83.437c0,2.626-1.68,5.038-5.039,7.227
		c-3.359,2.189-7.371,3.285-12.043,3.285c-4.818,0-8.838-1.061-12.045-3.175C857.066,692.228,855.463,689.783,855.463,687.009z"/>
	<path fill="#E82833" d="M910.865,687.009V554.518c0-5.836,1.643-10.144,4.928-12.92c3.285-2.771,7.336-4.162,12.154-4.162
		c6.57,0,11.568,0.986,15,2.957c3.428,1.971,7.262,6.679,11.498,14.125l22.557,39.419l22.557-39.419
		c4.232-7.446,8.066-12.154,11.496-14.125c3.428-1.971,8.43-2.957,15-2.957c4.818,0,8.871,1.39,12.154,4.162
		c3.285,2.777,4.928,7.084,4.928,12.92v132.491c0,3.362-1.678,5.952-5.037,7.773c-3.359,1.827-7.375,2.738-12.045,2.738
		c-4.674,0-8.684-0.911-12.043-2.738c-3.357-1.824-5.039-4.411-5.039-7.773v-82.122l-21.023,35.917
		c-2.482,4.236-6.275,6.35-11.385,6.35c-4.963,0-8.543-2.114-10.732-6.35l-20.803-38.107v84.313c0,3.362-1.682,5.952-5.037,7.773
		c-3.357,1.827-7.373,2.738-12.045,2.738c-4.676,0-8.688-0.911-12.045-2.738C912.547,692.958,910.865,690.371,910.865,687.009z"/>
	<path fill="#E82833" d="M1058.9,669.365c0-11.667,4.414-19.895,13.252-24.68c8.832-4.779,21.498-7.172,37.994-7.172h7.885v-2.295
		c0-4.586-1.314-8.564-3.939-11.932c-2.631-3.363-6.789-5.046-12.486-5.046c-7.004,0-12.779,1.352-17.299,4.052
		c-4.527,2.705-7.305,4.051-8.324,4.051c-3.504,0-6.275-1.715-8.322-5.146c-2.043-3.428-3.064-7.336-3.064-11.716
		c0-4.818,4.051-8.942,12.154-12.373c8.102-3.428,16.531-5.146,25.295-5.146c16.787,0,29.305,4.087,37.557,12.263
		c8.244,8.176,12.373,18.396,12.373,30.659v52.121c0,2.923-1.57,5.403-4.711,7.446c-3.137,2.044-7.119,3.065-11.938,3.065
		c-4.236,0-7.809-1.093-10.725-3.276c-2.924-2.183-4.379-4.829-4.379-7.948v-5.147c-10.076,12.374-21.172,18.562-33.285,18.562
		c-8.035,0-14.711-2.587-20.041-7.759C1061.564,686.78,1058.9,679.25,1058.9,669.365z M1093.068,664.904
		c0,5.685,2.846,8.527,8.537,8.527c3.646,0,7.301-1.892,10.951-5.686c3.65-3.793,5.477-8.123,5.477-12.994v-0.814h-0.873
		c-4.818,0-8.799,0.202-11.936,0.609c-3.143,0.406-5.951,1.455-8.436,3.146C1094.311,659.385,1093.068,661.791,1093.068,664.904z"/>
	<path fill="#E82833" d="M1171.023,734.53V603.572c0-3.065,1.568-5.544,4.711-7.445c3.137-1.898,6.969-2.847,11.494-2.847
		s8.25,0.958,11.17,2.871c2.918,1.913,4.381,4.414,4.381,7.503v5.076c2.768-4.705,6.787-8.673,12.043-11.911
		c5.258-3.236,11.092-4.856,17.52-4.856c10.951,0,20.217,4.489,27.814,13.467c7.588,8.979,11.387,19.819,11.387,32.521v15.33
		c0,12.265-3.834,23.067-11.498,32.409c-7.666,9.347-16.535,14.017-26.607,14.017c-6.131,0-11.859-1.726-17.189-5.187
		c-5.328-3.457-9.086-7.609-11.277-12.463v52.446c0,2.632-1.717,5.043-5.145,7.244c-3.434,2.192-7.484,3.291-12.154,3.291
		c-4.676,0-8.617-1.061-11.824-3.175C1172.631,739.746,1171.023,737.302,1171.023,734.53z M1204.967,656.035
		c0,2.316,1.643,5.209,4.928,8.682s7.117,5.207,11.496,5.207c4.236,0,7.996-1.699,11.281-5.097
		c3.281-3.404,4.924-7.271,4.924-11.614v-15.188c0-4.194-1.643-7.96-4.924-11.284c-3.285-3.328-7.193-4.994-11.721-4.994
		c-4.236,0-7.957,1.483-11.168,4.446c-3.215,2.969-4.818,6.907-4.818,11.829v18.014H1204.967z"/>
</g>
</svg>
